<svg xmlns="http://www.w3.org/2000/svg" viewBox="0 0 1200 760" role="img" aria-label="奶油色桌面上的咖啡杯、云朵和小花">
  <defs><linearGradient id="bg" x1="0" y1="0" x2="1" y2="1"><stop offset="0" stop-color="#fff8ef"/><stop offset=".55" stop-color="#fff1e8"/><stop offset="1" stop-color="#f3f8ff"/></linearGradient></defs>
  <rect width="1200" height="760" fill="url(#bg)"/>
  <circle cx="200" cy="160" r="150" fill="#ffd8e5" opacity=".5"/><circle cx="950" cy="560" r="190" fill="#b7f3d4" opacity=".42"/>
  <ellipse cx="600" cy="612" rx="360" ry="54" fill="#e8d8c4" opacity=".36"/>
  <g transform="translate(410 260)"><path d="M60 100h250v130c0 70-54 126-125 126S60 300 60 230z" fill="#fff" stroke="#e7d8c9" stroke-width="10"/><path d="M310 146c78-6 110 26 100 76-9 50-52 74-114 54" fill="none" stroke="#e7d8c9" stroke-width="18" stroke-linecap="round"/><path d="M105 86c-20-48 32-62 12-110M180 86c-24-60 40-74 18-128M245 86c-18-42 30-58 16-102" stroke="#ffb199" stroke-width="10" stroke-linecap="round" fill="none" opacity=".7"/></g>
  <g fill="#fff" opacity=".88"><circle cx="282" cy="280" r="48"/><circle cx="340" cy="260" r="66"/><circle cx="410" cy="286" r="46"/><rect x="282" y="280" width="130" height="48" rx="24"/></g>
  <g transform="translate(820 250)"><circle cx="40" cy="40" r="20" fill="#ffd166"/><circle cx="40" cy="12" r="10" fill="#ffb199"/><circle cx="68" cy="40" r="10" fill="#ffb199"/><circle cx="40" cy="68" r="10" fill="#ffb199"/><circle cx="12" cy="40" r="10" fill="#ffb199"/></g>
</svg>
