<svg xmlns="http://www.w3.org/2000/svg" viewBox="0 0 1200 760" role="img" aria-label="浅色书桌、小台灯、贴纸和整齐摆放的笔记本">
  <defs><linearGradient id="bg" x1="0" y1="0" x2="1" y2="1"><stop offset="0" stop-color="#fff8ef"/><stop offset=".55" stop-color="#f7fbff"/><stop offset="1" stop-color="#fff1f6"/></linearGradient></defs>
  <rect width="1200" height="760" fill="url(#bg)"/>
  <rect x="120" y="520" width="960" height="92" rx="34" fill="#eadcc9" opacity=".56"/>
  <rect x="220" y="250" width="300" height="220" rx="34" fill="#fff" stroke="#e7ecf7" stroke-width="8"/>
  <path d="M270 312h200M270 360h150M270 408h180" stroke="#8b92a3" stroke-width="11" stroke-linecap="round" opacity=".62"/>
  <rect x="590" y="300" width="260" height="170" rx="30" fill="#f4f8ff" stroke="#dbe9ff" stroke-width="8"/>
  <path d="M640 358h160M640 406h108" stroke="#6aa8ff" stroke-width="12" stroke-linecap="round" opacity=".68"/>
  <g transform="translate(760 150)"><path d="M0 170h160" stroke="#d9a84f" stroke-width="14" stroke-linecap="round"/><path d="M80 170V80" stroke="#d9a84f" stroke-width="14" stroke-linecap="round"/><path d="M80 80c20-58 96-58 118 0z" fill="#fff" stroke="#d9a84f" stroke-width="10"/><circle cx="144" cy="92" r="36" fill="#ffd166" opacity=".45"/></g>
  <g transform="translate(898 438)"><rect width="90" height="90" rx="26" fill="#ffd8e5"/><circle cx="32" cy="38" r="6" fill="#1d1d1f"/><circle cx="58" cy="38" r="6" fill="#1d1d1f"/><path d="M34 58c12 9 24 9 34 0" fill="none" stroke="#1d1d1f" stroke-width="6" stroke-linecap="round"/></g>
</svg>
